<svg id="Capa_1" enable-background="new 0 0 512.106 512.106" height="512" viewBox="0 0 512.106 512.106" width="512" xmlns="http://www.w3.org/2000/svg"><path d="m35.829 35.837-1.768 30.053 26.516 58.336 74.247 10.606z" fill="#ffd06a"/><path d="m65.881 34.07-33.588 5.303 70.711 90.914 21.213-69.701z" fill="#ffe7b5"/><path d="m44.667 55.283-1.767-12.374-35.356-35.356 26.517 58.337z" fill="#5515a6"/><path d="m65.881 34.07-58.337-26.517 37.123 47.73z" fill="#6241ea"/><path d="m474.545 495.766 21.213-21.213s-63.64-63.64-63.64-63.64l-21.213 63.64 21.213 21.213c11.716 11.716 30.711 11.716 42.427 0z" fill="#ff3e3a"/><path d="m495.758 474.553c11.716-11.716 11.715-30.711 0-42.426l-21.213-21.213-63.64 21.213 42.426 42.426c11.716 11.716 30.711 11.716 42.427 0z" fill="#ff5d34"/><path d="m432.118 453.34-63.64-106.066 21.214 106.066 21.213 21.213z" fill="#c4f3ff"/><path d="m474.544 410.914-21.213-21.213-106.066-21.214 84.853 84.853z" fill="#fff"/><path d="m103.004 81.799-21.214 21.214 129.202 157.486 199.913 171.628 21.213-21.213-171.628-199.913z" fill="#6241ea"/><path d="m220.741 45.457h30v465.438h-30z" fill="#ffb820" transform="matrix(.707 -.707 .707 .707 -127.653 248.17)"/><path d="m263.167 3.031h30v465.438h-30z" fill="#ffd06a" transform="matrix(.707 -.707 .707 .707 -85.227 265.744)"/><path d="m495.168 81.009-82.569 117.472 56.685 14.025c35.694-35.511 44.261-87.777 25.884-131.497z" fill="#93b7c0"/><path d="m398.145 8.325c-34.966-3.981-71.676 7.725-98.567 34.475-.148.148 31.929 60.447 31.929 60.447z" fill="#acd5df"/><path d="m398.145 8.325-80.78 80.78 21.213 21.213 93.133-93.133c-10.783-4.603-22.096-7.559-33.566-8.86z" fill="#93b7c0"/><path d="m495.167 81.009c5.904 31.247-11.438 74.738-47.097 110.284l-52.923-10.264z" fill="#acd5df"/><path d="m299.679 191.204-287.75 287.75c2.143 4.49 5.077 8.697 8.796 12.417 17.572 17.572 46.061 17.579 63.64 0l257.74-257.74zm-257.741 278.956c-5.858-5.858-5.858-15.355 0-21.213s15.355-5.858 21.213 0 5.858 15.355 0 21.212-15.355 5.858-21.213.001z" fill="#93b7c0"/><path d="m41.937 470.161c-5.858-5.858-5.857-15.355.001-21.213s15.355-5.859 21.213-.001c5.854 5.854 5.857 15.341.012 21.2l257.729-257.729-42.426-42.426-257.74 257.74c-13.859 13.859-16.787 34.493-8.796 51.223 16.72 7.986 37.339 5.066 51.198-8.773-5.86 5.835-15.34 5.829-21.191-.021z" fill="#acd5df"/><path d="m299.578 42.801c-19.892 19.892-31.4 45.094-34.404 71.025l-9.13 78.587 63.64 63.64 78.569-9.143c25.933-3.004 51.137-14.511 71.031-34.405z" fill="#93b7c0"/><path d="m374.16 159.59-15.91-5.304-5.303-15.909-21.213-21.214-31.82 31.82 21.213 21.213 15.91 5.304 5.303 15.91 21.214 21.213 31.819-31.82z" fill="#acd5df"/><path d="m325.144 149.893h45v30h-45z" fill="#c4f3ff" transform="matrix(.707 -.707 .707 .707 -14.775 294.117)"/><path d="m501.017 479.857c7.082-7.083 10.983-16.5 10.983-26.517s-3.901-19.434-10.983-26.516l-165.112-165.113 63.167-7.35c28.387-3.288 55.189-16.269 75.457-36.538 36.94-36.747 47.739-91.591 27.511-139.723-.968-2.303-3.019-3.973-5.47-4.454-2.45-.483-4.981.29-6.748 2.056l-73.389 73.389-53.033-53.031 73.572-73.572c1.761-1.761 2.532-4.281 2.06-6.726s-2.128-4.497-4.418-5.475c-23.063-9.849-48.43-12.609-73.355-7.978-25.462 4.73-48.635 16.893-67.027 35.189-20.281 20.281-33.262 47.082-36.551 75.463l-7.34 63.186-120.865-120.864c-.637-.636-1.382-1.152-2.2-1.524l-116.672-53.033c-2.848-1.294-6.197-.687-8.408 1.524-2.21 2.21-2.817 5.561-1.524 8.407l53.033 116.672c.372.819.889 1.564 1.524 2.2l126.525 126.525-166.377 166.378c-20.469 20.469-20.47 53.775-.001 74.245 9.916 9.916 23.1 15.377 37.124 15.377 14.023 0 27.207-5.461 37.123-15.377l187.589-187.59 123.041 123.041-10.606 10.606-107.13-107.131c-2.929-2.929-7.677-2.929-10.607 0-2.929 2.929-2.929 7.678 0 10.606l154.861 154.861c7.311 7.311 16.913 10.966 26.516 10.966 9.604 0 19.206-3.655 26.518-10.966zm-68.943-79.55-123.041-123.041 10.606-10.606 123.041 123.041zm60.03-305.672c11.48 37.328 2.885 77.698-23.028 107.101l-42.037-42.037zm-74.034-74.459-65.277 65.278-42.454-42.454c29.458-25.57 70.786-34.232 107.731-22.824zm-183.283 182.845-121.221-121.221 10.606-10.606 121.221 121.22zm-171.905-91.751-19.887-43.752 24.469-24.469 43.751 19.887zm40.077-18.863 121.221 121.22-10.606 10.606-121.221-121.22zm-50.079-55.988-16.514 16.515-13.762-30.277zm18.26 87.807 10.606-10.606 121.221 121.221-10.606 10.606zm7.876 361.844c-7.082 7.083-16.499 10.983-26.516 10.983-10.018 0-19.435-3.9-26.517-10.983-14.621-14.621-14.62-38.411.001-53.032l235.319-235.321c.277-.277.518-.574.743-.879.035-.048.072-.095.106-.144.216-.31.406-.632.57-.964.021-.043.04-.087.061-.13.166-.354.31-.715.418-1.085.109-.378.182-.758.231-1.141.004-.032.015-.062.019-.093l9.13-78.59c2.615-22.563 12.195-43.981 27.148-61.087l111.397 111.396c.006.006 47.312 47.312 47.312 47.312-17.115 14.959-38.532 24.537-61.096 27.15l-78.569 9.142c-1.678.195-3.241.952-4.436 2.147zm208.804-187.591 10.606-10.606 123.041 123.041-10.606 10.606zm165.467 101.829 10.606 10.606-53.033 53.033-10.606-10.606zm-15.91 90.156-15.91-15.91 53.033-53.033 15.91 15.91c4.249 4.25 6.59 9.9 6.59 15.91s-2.341 11.66-6.591 15.91l-21.212 21.213c-8.774 8.772-23.048 8.773-31.82 0z"/><path d="m68.41 443.644c-4.25-4.25-9.9-6.59-15.91-6.59-6.011 0-11.66 2.341-15.909 6.59-8.773 8.772-8.774 23.047-.001 31.821 4.386 4.386 10.148 6.579 15.909 6.579 5.763 0 11.524-2.193 15.911-6.579 4.25-4.25 6.59-9.9 6.59-15.91 0-6.011-2.341-11.661-6.59-15.911zm-21.214 21.214c-2.925-2.924-2.924-7.683.001-10.607 1.416-1.417 3.3-2.197 5.303-2.197 2.004 0 3.887.78 5.303 2.196 1.417 1.417 2.197 3.3 2.197 5.304 0 2.003-.78 3.887-2.196 5.303-2.926 2.924-7.684 2.925-10.608.001z"/><path d="m363.508 220.124c1.989 0 3.896-.79 5.304-2.197l31.819-31.82c2.929-2.929 2.929-7.678 0-10.607l-21.211-21.21c-.003-.003-42.428-42.428-42.428-42.428-2.93-2.929-7.678-2.929-10.607 0l-31.819 31.819c-2.929 2.929-2.929 7.678 0 10.607l21.209 21.209c.009.009 21.208 21.208 21.208 21.208.019.019 21.223 21.223 21.223 21.223 1.405 1.406 3.313 2.196 5.302 2.196zm0-60.533-21.213 21.213-10.606-10.606 21.213-21.213zm-31.82-31.82 10.606 10.606-21.213 21.213-10.606-10.606zm21.213 63.64 21.213-21.213 10.606 10.606-21.213 21.213z"/></svg>