<svg id="Capa_1" enable-background="new 0 0 512 512" height="512" viewBox="0 0 512 512" width="512" xmlns="http://www.w3.org/2000/svg"><path d="m447.384 97.5c-33.428-40.311-79.351-69.889-131.83-82.799l-89.554 22.799v437l89.555 22.799c86.224-21.211 154.745-87.418 179.233-172.299z" fill="#3a6fd8"/><path d="m451.961 145.994c-27.149-62.435-76.685-110.012-136.68-129.205l-118.836 7.912v462.597l118.838 7.923c75.091-24.021 133.793-92.526 152.729-178.939z" fill="#3b88f5"/><path d="m447.39 97.5h-23.105l41.673 227.499c.042.001 28.83.001 28.83.001 6.32-21.908 9.712-45.057 9.712-69 0-60.247-21.444-115.482-57.11-158.5z" fill="#61ce5a"/><path d="m424.285 97.5h-18.285c-16.569 0-30 13.431-30 30v23.5h-45v30c0 16.569 13.431 30 30 30h45v45h30v39c0 16.554 13.409 29.976 29.958 29.999 5.557-21.908 8.542-45.056 8.542-68.999 0-60.247-18.855-115.482-50.215-158.5z" fill="#94e368"/><path d="m256 7.5-59.555 30 59.555 30c30.698 0 55.995-23.059 59.555-52.799-19.082-4.694-39.024-7.201-59.555-7.201z" fill="#fff"/><path d="m256 444.5-59.555 30 59.555 30c20.531 0 40.473-2.507 59.555-7.201-3.56-29.74-28.857-52.799-59.555-52.799z" fill="#fff"/><path d="m316 256c-16.569 0-30 13.431-30 30s13.431 30 30 30v38.5c0 24.75 20.25 45 45 45h45v-143.5z" fill="#94e368"/><path d="m21.66 173.167 183.085 82.833 51.255-248.5c-108.195 0-200.224 69.154-234.34 165.667z" fill="#c4f3ff"/><path d="m204.745 256-183.085 82.833c34.116 96.513 126.145 165.667 234.34 165.667z" fill="#4fdbff"/><path d="m21.66 173.167c-9.159 25.91-14.16 53.786-14.16 82.833s5.001 56.923 14.16 82.833h183.085v-165.666z" fill="#8ae7ff"/><path d="m138.83 173.167 58.585 79.098 58.585-79.098v-165.667c-54.098 0-100.112 69.154-117.17 165.667z" fill="#8ae7ff"/><path d="m138.83 338.833c17.058 96.513 63.072 165.667 117.17 165.667v-165.667l-58.585-79.098z" fill="#14cfff"/><path d="m138.83 173.167c-4.58 25.911-7.08 53.786-7.08 82.833s2.5 56.923 7.08 82.833h117.17v-165.666z" fill="#4fdbff"/><path d="m316 120c4.143 0 7.5-3.357 7.5-7.5v-15c0-4.143-3.357-7.5-7.5-7.5s-7.5 3.357-7.5 7.5v15c0 4.143 3.357 7.5 7.5 7.5z"/><path d="m437.02 74.98c-48.352-48.351-112.64-74.98-181.02-74.98s-132.668 26.629-181.02 74.98-74.98 112.64-74.98 181.02 26.629 132.668 74.98 181.02 112.64 74.98 181.02 74.98 132.668-26.629 181.02-74.98 74.98-112.64 74.98-181.02-26.629-132.668-74.98-181.02zm52.016 242.52h-23.036c-12.406 0-22.5-10.094-22.5-22.5v-39c0-4.143-3.357-7.5-7.5-7.5h-22.5v-37.5c0-4.143-3.357-7.5-7.5-7.5h-45c-12.406 0-22.5-10.094-22.5-22.5v-22.5h37.5c4.143 0 7.5-3.357 7.5-7.5v-23.5c0-12.406 10.094-22.5 22.5-22.5h37.679c33.332 41.347 53.321 93.879 53.321 151 0 21.249-2.777 41.859-7.964 61.5zm-240.536-301.98v150.147h-100.643c6.463-32.561 16.427-62.165 29.43-86.758 19.904-37.642 44.95-59.827 71.213-63.389zm0 480.96c-26.262-3.563-51.308-25.747-71.213-63.391-13.003-24.593-22.967-54.196-29.43-86.757h100.643zm15-43.942c20.972 3.013 38.184 18.474 43.373 39.041-14.047 3.031-28.542 4.837-43.373 5.293zm0-437.41c14.831.456 29.326 2.262 43.373 5.293-5.189 20.567-22.401 36.029-43.373 39.041zm-60.106 5.671c-14.507 12.101-27.839 29.295-39.368 51.098-14.053 26.577-24.716 58.614-31.446 93.77h-99.997c29.407-72.466 93.08-127.493 170.811-144.868zm-176.322 159.868h102.91c-3.019 19.352-4.884 39.506-5.498 60.109-.123 4.141 3.134 7.597 7.273 7.721.076.002.152.003.228.003 4.039 0 7.372-3.213 7.493-7.276.62-20.817 2.549-41.133 5.682-60.557h103.34v150.666h-103.34c-3.133-19.424-5.062-39.74-5.682-60.557-.124-4.141-3.568-7.408-7.721-7.273-4.14.124-7.396 3.58-7.273 7.721.614 20.603 2.479 40.758 5.498 60.109h-102.91c-7.823-23.712-12.072-49.034-12.072-75.333s4.249-51.621 12.072-75.333zm5.511 165.666h99.997c6.73 35.156 17.394 67.192 31.446 93.769 11.529 21.804 24.861 38.998 39.368 51.099-77.731-17.375-141.404-72.402-170.811-144.868zm288.847 141.637c-6.829-27.181-29.979-47.431-57.93-50.538v-362.864c27.951-3.107 51.101-23.357 57.93-50.538 42.184 11.915 79.707 35.051 109.125 65.97h-24.555c-20.678 0-37.5 16.822-37.5 37.5v16h-37.5c-4.143 0-7.5 3.357-7.5 7.5v30c0 20.678 16.822 37.5 37.5 37.5h37.5v30h-82.5c-20.678 0-37.5 16.822-37.5 37.5 0 18.109 12.904 33.262 30 36.747v31.753c0 28.948 23.552 52.5 52.5 52.5h45c4.143 0 7.5-3.357 7.5-7.5v-136h15v31.5c0 20.678 16.822 37.5 37.5 37.5h18.548c-25.206 75.108-86.464 133.819-163.118 155.47zm-5.43-179.47c-12.406 0-22.5-10.094-22.5-22.5s10.094-22.5 22.5-22.5h82.5v128.5h-37.5c-20.678 0-37.5-16.822-37.5-37.5v-38.5c0-4.143-3.357-7.5-7.5-7.5z"/></svg>