<svg id="Capa_1" enable-background="new 0 0 511.998 511.998" height="512" viewBox="0 0 511.998 511.998" width="512" xmlns="http://www.w3.org/2000/svg"><g><circle cx="193.876" cy="442.373" fill="#447d99" r="31.062"/><circle cx="411.311" cy="442.373" fill="#447d99" r="31.062"/><path d="m457.881 318.116h-326.13v-186.366h341.685v170.81c0 8.591-6.964 15.556-15.555 15.556z" fill="#c9ebfa"/><path d="m131.75 131.747h31.063v186.37h-31.063z" fill="#a0ddf3"/><path d="m457.441 380.2h-372.308c-8.564 0-15.507-6.943-15.507-15.507 0-8.564 6.943-15.507 15.507-15.507h15.617c17.121 0 31-13.879 31-31v-264.623c0-8.284-6.716-15-15-15h-16.062v279.552h-15.526c-25.735 0-46.597 20.862-46.597 46.597 0 25.735 20.862 46.597 46.597 46.597h372.719c8.84 0 15.958-7.375 15.537-16.307-.394-8.365-7.601-14.802-15.977-14.802z" fill="#c9ebfa"/><path d="m162.813 162.873h279.56v124.082h-279.56z" fill="#8cbdf9"/><path d="m193.876 449.873c-4.142 0-7.5-3.358-7.5-7.5 0-4.142 3.358-7.5 7.5-7.5 4.142 0 7.5 3.358 7.5 7.5 0 4.142-3.358 7.5-7.5 7.5z"/><path d="m411.311 449.873c-4.142 0-7.5-3.358-7.5-7.5 0-4.142 3.358-7.5 7.5-7.5 4.142 0 7.5 3.358 7.5 7.5 0 4.142-3.358 7.5-7.5 7.5z"/><path d="m100.689 69.625h-77.656c-8.578 0-15.531-6.954-15.531-15.531 0-8.578 6.954-15.531 15.531-15.531h77.656z" fill="#a0ddf3"/><circle cx="426.842" cy="116.219" fill="#ade194" r="77.656"/><path d="m436.84 193.237c-3.27.42-6.61.64-10 .64-42.89 0-77.65-34.77-77.65-77.66s34.76-77.65 77.65-77.65c3.39 0 6.73.22 10 .64-38.17 4.9-67.65 37.51-67.65 77.01s29.48 72.11 67.65 77.02z" fill="#97da7b"/><path d="m473.436 100.688h-31.062v-31.063h-31.063v31.063h-31.062v31.062h31.062v31.062h31.063v-31.062h31.062z" fill="#eaf6ff"/><g><path d="m511.998 116.219c0-46.955-38.2-85.156-85.155-85.156s-85.156 38.201-85.156 85.156c0 2.708.141 5.384.39 8.028h-69.737c-4.143 0-7.5 3.358-7.5 7.5s3.357 7.5 7.5 7.5h72.536c1.585 5.634 3.733 11.031 6.386 16.13h-188.452c-4.142 0-7.5 3.358-7.5 7.5v124.08c0 4.142 3.358 7.5 7.5 7.5h279.56c4.143 0 7.5-3.358 7.5-7.5v-88.772c5.612-1.579 10.989-3.717 16.07-6.355v110.727c0 4.444-3.616 8.06-8.061 8.06h-318.629v-171.37h100.41c4.142 0 7.5-3.358 7.5-7.5s-3.358-7.5-7.5-7.5h-100.41v-70.68c0-12.407-10.093-22.5-22.5-22.5h-93.72c-12.699 0-23.03 10.331-23.03 23.03s10.331 23.03 23.03 23.03h70.16v131.47c0 4.142 3.358 7.5 7.5 7.5s7.5-3.358 7.5-7.5v-138.97c0-4.142-3.358-7.5-7.5-7.5h-77.66c-4.428 0-8.03-3.602-8.03-8.03s3.602-8.03 8.03-8.03h93.72c4.136 0 7.5 3.365 7.5 7.5v264.62c0 12.958-10.542 23.5-23.5 23.5h-15.62c-12.682 0-23 10.322-23 23.01 0 12.682 10.318 23 23 23h216.65c4.143 0 7.5-3.358 7.5-7.5s-3.357-7.5-7.5-7.5h-216.65c-4.411 0-8-3.589-8-8 0-4.417 3.589-8.01 8-8.01h15.62c18.687 0 34.301-13.385 37.774-31.07h319.356c12.716 0 23.061-10.345 23.061-23.06v-120.623c18.954-15.631 31.057-39.286 31.057-65.715zm-85.155-70.156c38.684 0 70.155 31.472 70.155 70.156s-31.472 70.155-70.155 70.155c-38.112 0-70.156-32.319-70.156-70.155 0-38.684 31.471-70.156 70.156-70.156zm8.027 233.394h-264.56v-109.08h190.866c5.097 6.169 11.05 11.602 17.667 16.134-3.469.659-6.094 3.703-6.094 7.364v62.124c0 4.142 3.357 7.5 7.5 7.5s7.5-3.358 7.5-7.5v-62.124c0-.771-.117-1.514-.333-2.214 5.176 2.716 10.664 4.91 16.395 6.522v57.815c0 4.142 3.357 7.5 7.5 7.5s7.5-3.358 7.5-7.5v-55.014c5.353.52 10.706.52 16.059 0z"/><path d="m193.875 186.375c-4.142 0-7.5 3.358-7.5 7.5v62.124c0 4.142 3.358 7.5 7.5 7.5s7.5-3.358 7.5-7.5v-62.124c0-4.142-3.357-7.5-7.5-7.5z"/><path d="m224.938 186.375c-4.142 0-7.5 3.358-7.5 7.5v62.124c0 4.142 3.358 7.5 7.5 7.5s7.5-3.358 7.5-7.5v-62.124c0-4.142-3.358-7.5-7.5-7.5z"/><path d="m256 186.375c-4.142 0-7.5 3.358-7.5 7.5v62.124c0 4.142 3.358 7.5 7.5 7.5 4.143 0 7.5-3.358 7.5-7.5v-62.124c0-4.142-3.357-7.5-7.5-7.5z"/><path d="m287.062 186.375c-4.143 0-7.5 3.358-7.5 7.5v62.124c0 4.142 3.357 7.5 7.5 7.5s7.5-3.358 7.5-7.5v-62.124c0-4.142-3.357-7.5-7.5-7.5z"/><path d="m318.125 186.375c-4.143 0-7.5 3.358-7.5 7.5v62.124c0 4.142 3.357 7.5 7.5 7.5s7.5-3.358 7.5-7.5v-62.124c0-4.142-3.357-7.5-7.5-7.5z"/><path d="m349.187 186.375c-4.143 0-7.5 3.358-7.5 7.5v62.124c0 4.142 3.357 7.5 7.5 7.5s7.5-3.358 7.5-7.5v-62.124c0-4.142-3.358-7.5-7.5-7.5z"/><path d="m457.44 372.697h-122.97c-4.143 0-7.5 3.358-7.5 7.5s3.357 7.5 7.5 7.5h122.97c4.479 0 8.286 3.44 8.487 7.663-.268 5.117-2.951 7.932-8.048 8.448h-372.719c-21.325 0-39.1-17.761-39.1-39.09 0-21.56 17.54-39.1 39.1-39.1h15.53c4.142 0 7.5-3.358 7.5-7.5v-76.84c0-4.142-3.358-7.5-7.5-7.5s-7.5 3.358-7.5 7.5v69.34h-8.03c-29.831 0-54.1 24.269-54.1 54.1 0 29.513 24.591 54.09 54.1 54.09h78.223c-5.052 6.522-8.07 14.696-8.07 23.565 0 21.264 17.299 38.563 38.562 38.563 21.264 0 38.563-17.299 38.563-38.563 0-8.87-3.018-17.043-8.07-23.565h156.451c-5.052 6.522-8.07 14.696-8.07 23.565 0 21.264 17.299 38.563 38.563 38.563s38.563-17.299 38.563-38.563c0-8.87-3.018-17.043-8.07-23.565h16.076c14.576-1.475 22.253-9.527 23.031-24.159-.59-12.31-10.899-21.952-23.472-21.952zm-263.565 93.238c-12.992 0-23.562-10.57-23.562-23.563s10.57-23.562 23.562-23.562 23.563 10.57 23.563 23.562-10.57 23.563-23.563 23.563zm217.437 0c-12.992 0-23.563-10.57-23.563-23.563s10.57-23.562 23.563-23.562 23.563 10.57 23.563 23.562-10.571 23.563-23.563 23.563z"/><path d="m380.249 139.25h23.563v23.563c0 4.142 3.357 7.5 7.5 7.5h31.062c4.143 0 7.5-3.358 7.5-7.5v-23.563h23.563c4.143 0 7.5-3.358 7.5-7.5v-31.062c0-4.142-3.357-7.5-7.5-7.5h-23.563v-23.563c0-4.142-3.357-7.5-7.5-7.5h-31.062c-4.143 0-7.5 3.358-7.5 7.5v23.563h-23.563c-4.143 0-7.5 3.358-7.5 7.5v31.062c0 4.142 3.357 7.5 7.5 7.5zm7.5-31.062h23.563c4.143 0 7.5-3.358 7.5-7.5v-23.563h16.062v23.563c0 4.142 3.357 7.5 7.5 7.5h23.563v16.062h-23.563c-4.143 0-7.5 3.358-7.5 7.5v23.563h-16.062v-23.563c0-4.142-3.357-7.5-7.5-7.5h-23.563z"/></g></g></svg>