<svg id="Capa_1" enable-background="new 0 0 512 512" height="512" viewBox="0 0 512 512" width="512" xmlns="http://www.w3.org/2000/svg"><g><path d="m162.813 99.948h279.56v311.35h-279.56z" fill="#fee97e"/><path d="m162.81 99.945h31.065v311.35h-31.065z" fill="#f9da58"/><path d="m193.875 131.738h217.436v248.498h-217.436z" fill="#ffb952"/><path d="m504.498 473.45-31.062-.027-31.062-31.062h-310.623v-31.062h341.685l31.062 31.062z" fill="#c9ebfa"/><path d="m7.502 38.552v31.062h93.187v341.685h31.062v-357.747c0-8.284-6.716-15-15-15z" fill="#c9ebfa"/><circle cx="116.22" cy="426.83" fill="#447d99" r="46.593"/><circle cx="116.22" cy="426.83" fill="#548eb5" r="15.531"/><path d="m322.68 188.781c-2.511-2.527-6.599-2.527-9.11 0l-6.421 6.463c-2.511 2.527-6.599 2.527-9.11 0l-6.421-6.463c-2.511-2.527-6.599-2.527-9.11 0-4.039 4.065-10.976 1.205-10.976-4.525v-84.31h62.125v84.31c-.001 5.73-6.939 8.59-10.977 4.525z" fill="#f5fcff"/><path d="m318.125 255.987h62.125v31.062h-62.125z" fill="#f5fcff"/><g><path d="m509.804 437.063-31.059-31.07c-1.407-1.407-3.315-2.198-5.305-2.198h-23.57v-303.85c0-4.142-3.357-7.5-7.5-7.5h-45.78c-4.143 0-7.5 3.358-7.5 7.5s3.357 7.5 7.5 7.5h38.28v296.35h-264.56v-296.35h93.722v16.79h-70.152c-4.143 0-7.5 3.358-7.5 7.5v123.44c0 4.142 3.357 7.5 7.5 7.5s7.5-3.358 7.5-7.5v-115.94h62.651v45.021c-.031 14.419 11.016 16.954 23.001 10.552l5.686 5.722c6.583 5.48 13.167 5.48 19.751 0l5.686-5.722c11.986 6.402 23.096 2.332 23.001-10.552v-45.021h62.654v233.5h-202.43v-84.87c0-4.142-3.357-7.5-7.5-7.5s-7.5 3.358-7.5 7.5v92.37c0 4.142 3.357 7.5 7.5 7.5h217.43c4.143 0 7.5-3.358 7.5-7.5v-248.5c0-4.142-3.357-7.5-7.5-7.5h-70.154v-16.79h22.755c4.143 0 7.5-3.358 7.5-7.5s-3.357-7.5-7.5-7.5h-201.101c-4.143 0-7.5 3.358-7.5 7.5v289.552c-4.573-4.786-10.007-8.74-16.06-11.6v-324.342c0-12.407-10.094-22.5-22.5-22.5h-109.25c-4.143 0-7.5 3.358-7.5 7.5v31.06c0 4.142 3.357 7.5 7.5 7.5h85.69v300.782c-18.34 8.667-31.063 27.338-31.063 48.933 0 29.827 24.266 54.093 54.093 54.093 21.592 0 40.263-12.721 48.931-31.058h123.949c4.143 0 7.5-3.358 7.5-7.5s-3.357-7.5-7.5-7.5h-119.387c.8-5.357.8-10.713 0-16.07h300.619l26.668 26.676v20.469l-20.451-.013-28.876-28.866c-1.407-1.406-3.314-2.196-5.303-2.196h-120.58c-4.143 0-7.5 3.358-7.5 7.5s3.357 7.5 7.5 7.5h117.475l28.873 28.864c1.405 1.405 3.311 2.194 5.298 2.196l31.06.02c3.79 0 7.505-3.798 7.505-7.5v-31.08c-.001-1.989-.791-3.896-2.197-5.302zm-183.649-329.618v74.485c-8.345-5.92-18.463.122-23.562 7.257-5.099-7.136-15.217-13.176-23.563-7.257v-74.485zm-225.465-45.33h-85.69v-16.06h101.75c4.136 0 7.5 3.364 7.5 7.5v319.781c-5.353-.799-10.706-.799-16.06 0v-303.721c0-4.142-3.357-7.5-7.5-7.5zm15.53 403.808c-21.556 0-39.093-17.537-39.093-39.093s17.537-39.094 39.093-39.094c21.557 0 39.094 17.538 39.094 39.094s-17.538 39.093-39.094 39.093z"/><path d="m116.22 403.799c-12.699 0-23.031 10.332-23.031 23.031s10.332 23.031 23.031 23.031 23.031-10.332 23.031-23.031c0-12.7-10.332-23.031-23.031-23.031zm0 31.062c-4.429 0-8.031-3.603-8.031-8.031s3.603-8.031 8.031-8.031 8.031 3.603 8.031 8.031-3.603 8.031-8.031 8.031z"/><path d="m318.124 325.612h62.125c4.143 0 7.5-3.358 7.5-7.5s-3.357-7.5-7.5-7.5h-62.125c-4.143 0-7.5 3.358-7.5 7.5s3.357 7.5 7.5 7.5z"/><path d="m318.124 356.674h62.125c4.143 0 7.5-3.358 7.5-7.5s-3.357-7.5-7.5-7.5h-62.125c-4.143 0-7.5 3.358-7.5 7.5s3.357 7.5 7.5 7.5z"/><path d="m318.124 294.55h62.125c4.143 0 7.5-3.358 7.5-7.5v-31.063c0-4.142-3.357-7.5-7.5-7.5h-62.125c-4.143 0-7.5 3.358-7.5 7.5v31.063c0 4.142 3.357 7.5 7.5 7.5zm7.5-31.063h47.125v16.063h-47.125z"/></g></g></svg>