<svg height="512" viewBox="0 0 64 64" width="512" xmlns="http://www.w3.org/2000/svg"><g id="calculator-Bill-Invoice-Payment"><path d="m52 7v22h-20a2.006 2.006 0 0 0 -2 2v16.5l-2 1.5-3-3-4 3-4-3-5 3v-42a3.995 3.995 0 0 0 -4-4h40a4 4 0 0 1 4 4z" fill="#f5e0ad"/><path d="m12 7v13h-8v-13a4 4 0 1 1 8 0z" fill="#eb9a43"/><rect fill="#365e7d" height="32" rx="2" width="31" x="30" y="29"/><path d="m34 52h5v5h-5z" fill="#e6e6e6"/><path d="m34 44h5v5h-5z" fill="#e6e6e6"/><path d="m34 33h23v7h-23z" fill="#5bcbfa"/><path d="m43 44h5v5h-5z" fill="#e6e6e6"/><path d="m43 52h5v5h-5z" fill="#e6e6e6"/><path d="m52 44h5v13h-5z" fill="#dd636e"/><path d="m59 28h-6v-21a5 5 0 0 0 -5-5h-40a5 5 0 0 0 -5 5v13a1 1 0 0 0 1 1h7v28a1 1 0 0 0 1.51.86l4.43-2.66 3.46 2.6a.99.99 0 0 0 1.2 0l3.31-2.48 2.38 2.39a1.008 1.008 0 0 0 1.31.09l.4-.3v9.5a3.009 3.009 0 0 0 3 3h27a3.009 3.009 0 0 0 3-3v-28a3.009 3.009 0 0 0 -3-3zm-48-9h-6v-12a3 3 0 0 1 6 0zm18 12v16l-.91.68-2.38-2.39a1 1 0 0 0 -1.31-.09l-3.4 2.55-3.4-2.55a1 1 0 0 0 -1.11-.06l-3.49 2.09v-40.23a4.924 4.924 0 0 0 -1.03-3h36.03a3.009 3.009 0 0 1 3 3v21h-19a3.009 3.009 0 0 0 -3 3zm31 28a1 1 0 0 1 -1 1h-27a1 1 0 0 1 -1-1v-28a1 1 0 0 1 1-1h27a1 1 0 0 1 1 1z"/><path d="m57 32h-23a1 1 0 0 0 -1 1v7a1 1 0 0 0 1 1h23a1 1 0 0 0 1-1v-7a1 1 0 0 0 -1-1zm-1 7h-21v-5h21z"/><path d="m39 43h-5a1 1 0 0 0 -1 1v5a1 1 0 0 0 1 1h5a1 1 0 0 0 1-1v-5a1 1 0 0 0 -1-1zm-1 5h-3v-3h3z"/><path d="m48 43h-5a1 1 0 0 0 -1 1v5a1 1 0 0 0 1 1h5a1 1 0 0 0 1-1v-5a1 1 0 0 0 -1-1zm-1 5h-3v-3h3z"/><path d="m39 51h-5a1 1 0 0 0 -1 1v5a1 1 0 0 0 1 1h5a1 1 0 0 0 1-1v-5a1 1 0 0 0 -1-1zm-1 5h-3v-3h3z"/><path d="m48 51h-5a1 1 0 0 0 -1 1v5a1 1 0 0 0 1 1h5a1 1 0 0 0 1-1v-5a1 1 0 0 0 -1-1zm-1 5h-3v-3h3z"/><path d="m57 43h-5a1 1 0 0 0 -1 1v13a1 1 0 0 0 1 1h5a1 1 0 0 0 1-1v-13a1 1 0 0 0 -1-1zm-1 13h-3v-11h3z"/><path d="m52 36h2v2h-2z"/><path d="m48 36h2v2h-2z"/><path d="m16 7h4v2h-4z"/><path d="m16 12h4v2h-4z"/><path d="m16 17h4v2h-4z"/><path d="m23 7h25v2h-25z"/><path d="m23 12h25v2h-25z"/><path d="m23 17h25v2h-25z"/><path d="m16 22h4v2h-4z"/><path d="m23 22h25v2h-25z"/><path d="m21 28h-1v-1h-2v1h-1a1 1 0 0 0 -1 1v4a1 1 0 0 0 1 1h3v2h-2v-1h-2v2a1 1 0 0 0 1 1h1v1h2v-1h1a1 1 0 0 0 1-1v-4a1 1 0 0 0 -1-1h-3v-2h2v1h2v-2a1 1 0 0 0 -1-1z"/><path d="m24 28h3v2h-3z"/><path d="m24 32h3v2h-3z"/><path d="m24 36h3v2h-3z"/></g></svg>